<svg id="visual" viewBox="0 0 900 450" width="900" height="450" xmlns="http://www.w3.org/2000/svg" xmlns:xlink="http://www.w3.org/1999/xlink" version="1.1"><path d="M0 15L100 19L200 15L300 15L400 19L500 19L600 15L700 15L800 19L900 19L900 0L800 0L700 0L600 0L500 0L400 0L300 0L200 0L100 0L0 0Z" fill="#96000d"></path><path d="M0 91L100 114L200 118L300 118L400 114L500 100L600 100L700 105L800 118L900 123L900 17L800 17L700 13L600 13L500 17L400 17L300 13L200 13L100 17L0 13Z" fill="#a40411"></path><path d="M0 114L100 136L200 136L300 141L400 136L500 123L600 118L700 123L800 136L900 141L900 121L800 116L700 103L600 98L500 98L400 112L300 116L200 116L100 112L0 89Z" fill="#b10914"></path><path d="M0 127L100 154L200 154L300 154L400 154L500 136L600 136L700 141L800 150L900 159L900 139L800 134L700 121L600 116L500 121L400 134L300 139L200 134L100 134L0 112Z" fill="#bf0f18"></path><path d="M0 154L100 186L200 186L300 181L400 186L500 163L600 168L700 163L800 177L900 190L900 157L800 148L700 139L600 134L500 134L400 152L300 152L200 152L100 152L0 125Z" fill="#cc141c"></path><path d="M0 172L100 204L200 213L300 208L400 213L500 190L600 190L700 190L800 199L900 217L900 188L800 175L700 161L600 166L500 161L400 184L300 179L200 184L100 184L0 152Z" fill="#d2161e"></path><path d="M0 222L100 244L200 258L300 244L400 253L500 235L600 235L700 240L800 235L900 249L900 215L800 197L700 188L600 188L500 188L400 211L300 206L200 211L100 202L0 170Z" fill="#d2161e"></path><path d="M0 316L100 325L200 325L300 316L400 330L500 330L600 325L700 330L800 303L900 325L900 247L800 233L700 238L600 233L500 233L400 251L300 242L200 256L100 242L0 220Z" fill="#cc141c"></path><path d="M0 375L100 379L200 375L300 370L400 370L500 370L600 375L700 370L800 361L900 379L900 323L800 301L700 328L600 323L500 328L400 328L300 314L200 323L100 323L0 314Z" fill="#bf0f18"></path><path d="M0 397L100 406L200 397L300 393L400 397L500 393L600 402L700 397L800 393L900 406L900 377L800 359L700 368L600 373L500 368L400 368L300 368L200 373L100 377L0 373Z" fill="#b10914"></path><path d="M0 415L100 424L200 415L300 415L400 420L500 411L600 424L700 420L800 411L900 424L900 404L800 391L700 395L600 400L500 391L400 395L300 391L200 395L100 404L0 395Z" fill="#a40411"></path><path d="M0 451L100 451L200 451L300 451L400 451L500 451L600 451L700 451L800 451L900 451L900 422L800 409L700 418L600 422L500 409L400 418L300 413L200 413L100 422L0 413Z" fill="#96000d"></path></svg>