<svg id="visual" viewBox="0 0 900 600" width="900" height="600" xmlns="http://www.w3.org/2000/svg" xmlns:xlink="http://www.w3.org/1999/xlink" version="1.1"><path d="M0 49L37.5 52C75 55 150 61 225 74C300 87 375 107 450 117C525 127 600 127 675 111C750 95 825 63 862.5 47L900 31L900 0L862.5 0C825 0 750 0 675 0C600 0 525 0 450 0C375 0 300 0 225 0C150 0 75 0 37.5 0L0 0Z" fill="#96000d"></path><path d="M0 145L37.5 150C75 155 150 165 225 178C300 191 375 207 450 239C525 271 600 319 675 338C750 357 825 347 862.5 342L900 337L900 29L862.5 45C825 61 750 93 675 109C600 125 525 125 450 115C375 105 300 85 225 72C150 59 75 53 37.5 50L0 47Z" fill="#c40012"></path><path d="M0 301L37.5 303C75 305 150 309 225 327C300 345 375 377 450 398C525 419 600 429 675 420C750 411 825 383 862.5 369L900 355L900 335L862.5 340C825 345 750 355 675 336C600 317 525 269 450 237C375 205 300 189 225 176C150 163 75 153 37.5 148L0 143Z" fill="#e10014"></path><path d="M0 463L37.5 466C75 469 150 475 225 482C300 489 375 497 450 496C525 495 600 485 675 483C750 481 825 487 862.5 490L900 493L900 353L862.5 367C825 381 750 409 675 418C600 427 525 417 450 396C375 375 300 343 225 325C150 307 75 303 37.5 301L0 299Z" fill="#c40012"></path><path d="M0 601L37.5 601C75 601 150 601 225 601C300 601 375 601 450 601C525 601 600 601 675 601C750 601 825 601 862.5 601L900 601L900 491L862.5 488C825 485 750 479 675 481C600 483 525 493 450 494C375 495 300 487 225 480C150 473 75 467 37.5 464L0 461Z" fill="#96000d"></path></svg>